<?xml version="1.0" encoding="UTF-8" standalone="no"?><!DOCTYPE svg PUBLIC "-//W3C//DTD SVG 1.1//EN" "http://www.w3.org/Graphics/SVG/1.1/DTD/svg11.dtd"><svg width="100%" height="100%" viewBox="0 0 30 30" version="1.1" xmlns="http://www.w3.org/2000/svg" xmlns:xlink="http://www.w3.org/1999/xlink" xml:space="preserve" xmlns:serif="http://www.serif.com/" style="fill-rule:evenodd;clip-rule:evenodd;stroke-linejoin:round;stroke-miterlimit:2;"><path d="M30,30l-30,0l0,-30l30,0l0,30Zm-28,-10.295l0,8.295l2.961,0l2.604,-2.73l-5.565,-5.565Zm5.725,8.295l20.275,0l0,-3.411l-8.712,-8.712l-11.563,12.123Zm1.221,-4.177l8.927,-9.361l1.366,-1.462l8.761,8.761l0,-19.761l-26,-0l0,14.877l6.946,6.946Zm0.054,-17.323c1.656,0 3,1.344 3,3c0,1.656 -1.344,3 -3,3c-1.656,-0 -3,-1.344 -3,-3c0,-1.656 1.344,-3 3,-3Z" style="fill:#f2f2f2;"/></svg>